<svg width="24" height="24" viewBox="0 0 24 24" fill="none" xmlns="http://www.w3.org/2000/svg">
<path d="M17 1H7C4.23858 1 2 3.23858 2 6V16C2 18.7614 4.23858 21 7 21H17C19.7614 21 22 18.7614 22 16V6C22 3.23858 19.7614 1 17 1Z" stroke="#F0B35B" stroke-width="2" stroke-linecap="round" stroke-linejoin="round"/>
<path d="M16 10.4133C16.1234 11.2455 15.9813 12.0955 15.5938 12.8423C15.2063 13.5891 14.5932 14.1947 13.8416 14.5729C13.0901 14.9512 12.2385 15.0829 11.4078 14.9492C10.5771 14.8155 9.80977 14.4234 9.21485 13.8284C8.61993 13.2335 8.22774 12.4661 8.09408 11.6355C7.96042 10.8048 8.09208 9.95316 8.47034 9.20164C8.8486 8.45012 9.4542 7.83701 10.201 7.44951C10.9478 7.06201 11.7978 6.91986 12.63 7.04327C13.4789 7.16915 14.2649 7.56473 14.8717 8.17158C15.4785 8.77842 15.8741 9.56435 16 10.4133Z" stroke="#F0B35B" stroke-width="2" stroke-linecap="round" stroke-linejoin="round"/>
<path d="M17.5 6.5H17.51" stroke="#F0B35B" stroke-width="2" stroke-linecap="round" stroke-linejoin="round"/>
</svg>
