<svg width="24" height="24" viewBox="0 0 24 24" fill="none" xmlns="http://www.w3.org/2000/svg">
<g id="twitter">
<path id="Vector" d="M23 5.01006C22.0424 5.68553 20.9821 6.20217 19.86 6.54006C19.2577 5.84757 18.4573 5.35675 17.567 5.13398C16.6767 4.91122 15.7395 4.96725 14.8821 5.29451C14.0247 5.62177 13.2884 6.20446 12.773 6.96377C12.2575 7.72309 11.9877 8.62239 12 9.54006V10.5401C10.2426 10.5856 8.50127 10.1959 6.93101 9.4055C5.36074 8.61513 4.01032 7.44869 3 6.01006C3 6.01006 -1 15.0101 8 19.0101C5.94053 20.408 3.48716 21.109 1 21.0101C10 26.0101 21 21.0101 21 9.51006C20.9991 9.23151 20.9723 8.95365 20.92 8.68006C21.9406 7.67355 22.6608 6.40277 23 5.01006Z" stroke="white" stroke-width="2" stroke-linecap="round" stroke-linejoin="round"/>
</g>
</svg>
